<?xml version="1.0" encoding="iso-8859-1"?>
<!-- Generator: Adobe Illustrator 19.0.0, SVG Export Plug-In . SVG Version: 6.00 Build 0)  -->
<svg fill='#838383'  version="1.1" id="Layer_1" xmlns="http://www.w3.org/2000/svg" xmlns:xlink="http://www.w3.org/1999/xlink" x="0px" y="0px"
	 viewBox="0 0 512 512" style="enable-background:new 0 0 512 512;" xml:space="preserve">
<g>
	<g>
		<g>
			<path d="M493.401,280.444C505.98,266.921,512,254.988,512,238.966v-12.505c0-21.752-17.633-39.385-39.385-39.385h-29.619
				l-167.304-53.742V29.538c0-10.876-8.817-19.692-19.692-19.692s-19.692,8.817-19.692,19.692v104.128L81.874,187.077h-42.49
				C17.633,187.077,0,204.71,0,226.462v12.524c0,16.061,6.063,28.045,18.69,41.559c0.49,0.519,0.732,0.775,1.002,1.058v126.025
				c-0.31,0.326-0.55,0.582-1.093,1.159C6.02,422.31,0,434.243,0,450.265v12.505c0,21.752,17.633,39.385,39.385,39.385h433.231
				c21.752,0,39.385-17.633,39.385-39.385v-12.485c0-16.024-6.016-27.941-18.606-41.467c-0.541-0.575-0.776-0.825-1.087-1.151
				V281.603C492.618,281.276,492.858,281.021,493.401,280.444z M256.23,168.45l57.989,18.627H202.37L256.23,168.45z
				 M472.615,238.966c0,4.512-1.637,7.757-8.052,14.653c-0.651,0.692-0.651,0.692-1.76,1.852c-1.629,1.697-1.629,1.697-2.411,2.511
				c-4.85,5.11-7.47,11.962-7.47,18.99v135.306c0,7.072,2.651,13.872,7.494,19.033c0.911,0.95,0.911,0.95,2.394,2.495
				c1.114,1.165,1.114,1.165,1.754,1.845c6.421,6.898,8.05,10.126,8.05,14.633v12.485H39.385v-12.505
				c0-4.512,1.637-7.757,8.051-14.653c0.651-0.692,0.651-0.692,1.76-1.852c1.629-1.697,1.629-1.697,2.411-2.511
				c4.856-5.116,7.47-11.951,7.47-18.99V276.972c0-7.021-2.599-13.879-7.437-18.975c-0.764-0.79-0.764-0.79-2.418-2.504
				c-1.116-1.162-1.116-1.162-1.755-1.837c-6.429-6.88-8.083-10.15-8.083-14.67v-12.524h33.977
				c4.285,1.765,9.198,2.052,13.921,0.418l1.21-0.418h384.123V238.966z"/>
			<path d="M256,423.385c10.876,0,19.692-8.817,19.692-19.692V285.538c0-10.876-8.817-19.692-19.692-19.692
				s-19.692,8.817-19.692,19.692v118.154C236.308,414.568,245.124,423.385,256,423.385z"/>
			<path d="M157.538,423.385c10.876,0,19.692-8.817,19.692-19.692V285.538c0-10.876-8.817-19.692-19.692-19.692
				c-10.876,0-19.692,8.817-19.692,19.692v118.154C137.846,414.568,146.663,423.385,157.538,423.385z"/>
			<path d="M354.462,423.385c10.876,0,19.692-8.817,19.692-19.692V285.538c0-10.876-8.817-19.692-19.692-19.692
				s-19.692,8.817-19.692,19.692v118.154C334.769,414.568,343.586,423.385,354.462,423.385z"/>
		</g>
	</g>
</g>
<g>
</g>
<g>
</g>
<g>
</g>
<g>
</g>
<g>
</g>
<g>
</g>
<g>
</g>
<g>
</g>
<g>
</g>
<g>
</g>
<g>
</g>
<g>
</g>
<g>
</g>
<g>
</g>
<g>
</g>
</svg>
